<?xml version="1.0" encoding="UTF-8" standalone="no"?>
<!DOCTYPE svg PUBLIC "-//W3C//DTD SVG 1.1//EN" "http://www.w3.org/Graphics/SVG/1.1/DTD/svg11.dtd">
<svg width="100%" height="100%" viewBox="0 0 329 329" version="1.1" xmlns="http://www.w3.org/2000/svg" xmlns:xlink="http://www.w3.org/1999/xlink" xml:space="preserve" xmlns:serif="http://www.serif.com/" style="fill-rule:evenodd;clip-rule:evenodd;stroke-linejoin:round;stroke-miterlimit:2;">
    <g transform="matrix(1,0,0,1,-199.6,-120.2)">
        <path d="M353,220.7L345.9,218.3L343.5,211.2L341.1,218.3L334,220.7L341.1,223L343.5,230.2L345.9,223L353,220.7Z" style="fill:rgb(43,46,255);fill-rule:nonzero;"/>
    </g>
    <g transform="matrix(1,0,0,1,-199.6,-120.2)">
        <circle cx="364" cy="284.6" r="164.4" style="fill:rgb(43,46,255);"/>
    </g>
    <g transform="matrix(1,0,0,1,-199.6,-120.2)">
        <g>
            <clipPath id="_clip1">
                <rect x="296.6" y="188.5" width="134.7" height="190.8"/>
            </clipPath>
            <g clip-path="url(#_clip1)">
                <path d="M296.6,358.5C296.6,371.8 305.1,379.2 316.5,379.2C327.9,379.2 336.4,371.8 336.4,358.5L336.4,300.8L336.9,300.8L395.9,372.3C400.2,377.4 406.5,379.2 411.3,379.2C423,379.2 431.2,369.1 431.2,358.7C431.2,355 429.6,351 425.9,347L380.7,298.6C407.8,294.3 429.8,277.6 429.8,248.4C429.8,206.7 404.6,188.4 363.6,188.4L316.8,188.4C303.5,188.4 296.3,196.4 296.3,209.1L296.3,358.5L296.6,358.5Z" style="fill:white;fill-rule:nonzero;"/>
            </g>
        </g>
        <g>
            <path d="M394.5,246.1C396.3,245.5 396.3,244.6 394.5,244L375.6,237.7C373.8,237.1 371.9,235.2 371.3,233.4L365,214.5C364.4,212.7 363.5,212.7 362.9,214.5L356.6,233.4C356,235.2 354.1,237.1 352.3,237.7L333.3,244C331.5,244.6 331.5,245.5 333.3,246.1L352.2,252.4C354,253 355.9,254.9 356.5,256.7L362.8,275.6C363.4,277.4 364.3,277.4 364.9,275.6L371.2,256.7C371.8,254.9 373.7,253 375.5,252.4L394.5,246.1Z" style="fill:rgb(43,46,255);fill-rule:nonzero;"/>
        </g>
    </g>
    <g transform="matrix(1,0,0,1,-199.6,-120.2)">
        <path d="M352.4,220.7L345.3,218.3L342.9,211.2L340.6,218.3L333.4,220.7L340.6,223L342.9,230.2L345.3,223L352.4,220.7Z" style="fill:rgb(43,46,255);fill-rule:nonzero;"/>
    </g>
</svg>
